<svg width="47" height="50" viewBox="0 0 47 50" fill="none" xmlns="http://www.w3.org/2000/svg">
<path d="M32.4359 47V38.9018C32.5148 37.9039 32.3793 36.9009 32.0385 35.9592C31.6978 35.0175 31.1595 34.1588 30.4595 33.4402C37.0615 32.7078 44 30.2176 44 18.7922C43.9995 15.8706 42.8703 13.0611 40.8462 10.945C41.8046 8.38899 41.7369 5.56369 40.6569 3.05607C40.6569 3.05607 38.1759 2.32367 32.4359 6.15307C27.6168 4.85321 22.537 4.85321 17.7179 6.15307C11.9779 2.32367 9.49692 3.05607 9.49692 3.05607C8.417 5.56369 8.34923 8.38899 9.30769 10.945C7.26847 13.0767 6.13812 15.9117 6.15385 18.855C6.15385 30.1967 13.0923 32.6868 19.6944 33.5029C19.0026 34.2143 18.4691 35.0627 18.1286 35.9929C17.7881 36.9231 17.6482 37.9142 17.7179 38.9018V47M17.7179 40.7223C7.20513 43.8611 7.20513 35.4909 3 34.4446L17.7179 40.7223Z" stroke="#E9E9E9" stroke-width="5" stroke-linecap="round" stroke-linejoin="round"/>
</svg>
